<svg xmlns="http://www.w3.org/2000/svg" width="508" height="491" viewBox="0 0 508 491" version="1.1"><path d="M 244.661 143.847 C 233.851 144.748, 232.433 146.409, 231.560 159.192 C 230.800 170.323, 231.442 206.808, 232.440 209.158 C 233.944 212.703, 237.806 213.095, 268.264 212.794 C 290.993 212.568, 298.206 212.196, 299.201 211.195 C 300.217 210.175, 300.467 203.107, 300.347 178.733 C 300.162 141.099, 301.433 144.002, 285.139 143.995 C 279.288 143.993, 269.550 143.811, 263.500 143.592 C 257.450 143.373, 248.972 143.487, 244.661 143.847 M 326.160 143.865 C 315.330 144.471, 314.711 144.626, 312.410 147.306 L 310 150.112 310 178.945 C 310 205.843, 310.128 207.937, 311.911 210.139 L 313.823 212.500 344.151 212.657 C 361.012 212.744, 375.241 212.406, 376.196 211.895 C 379.335 210.215, 379.989 204.073, 379.994 176.205 L 380 148.909 377.545 146.455 C 375.460 144.370, 374.143 143.999, 368.795 143.996 C 365.333 143.994, 356.875 143.820, 350 143.611 C 343.125 143.401, 332.397 143.515, 326.160 143.865 M 247.969 160.537 C 246.641 162.137, 245.461 192.701, 246.589 196.272 C 247.102 197.897, 248.690 198.021, 265.824 197.772 L 284.500 197.500 284.774 179.631 C 284.962 167.299, 284.692 161.334, 283.901 160.381 C 282.130 158.247, 249.753 158.387, 247.969 160.537 M 238.357 222.991 C 235.561 224.120, 233 227.840, 233 230.774 C 233 233.611, 236.935 235.450, 245.118 236.435 C 259.986 238.224, 276.300 248.942, 282.507 260.998 C 284.922 265.689, 288.966 278.863, 288.985 282.101 C 288.993 283.531, 289.494 286.119, 290.098 287.851 C 290.986 290.400, 291.744 291, 294.075 291 C 297.738 291, 299.750 287.987, 300.087 282 C 300.226 279.525, 300.263 266.553, 300.170 253.173 L 300 228.846 297.217 226.064 L 294.435 223.281 268.717 223.109 C 254.573 223.015, 242.437 222.754, 241.750 222.531 C 241.062 222.308, 239.536 222.515, 238.357 222.991 M 315.217 224.561 C 310.744 227.694, 310.306 230.190, 309.584 256.659 C 308.545 294.734, 306.288 292.500, 345.785 292.500 L 374.160 292.500 377.138 289.169 L 380.117 285.837 379.611 257.169 C 379.333 241.401, 379.082 228.156, 379.053 227.735 C 379.024 227.315, 377.538 226.079, 375.750 224.989 C 372.718 223.141, 370.651 223.007, 344.973 223.004 C 321.642 223.001, 317.105 223.238, 315.217 224.561 M 328.250 238.058 C 326.032 238.923, 326 239.193, 326 256.999 C 326 273.262, 326.174 275.134, 327.750 275.781 C 330.886 277.069, 360.592 276.584, 362.238 275.218 C 365.638 272.396, 365.525 240.844, 362.109 239.096 C 359.779 237.904, 330.914 237.019, 328.250 238.058 M 218.082 264.697 L 204.665 271.238 191.329 271.093 C 176.585 270.932, 177.484 271.147, 163.487 264.455 C 152.591 259.246, 146.885 258.146, 140.152 259.959 C 134.923 261.367, 127.380 267.995, 126.513 271.942 C 126.174 273.486, 124.818 275.762, 123.500 277 C 122.182 278.238, 120.813 280.575, 120.458 282.193 C 120.102 283.811, 119.202 285.369, 118.458 285.655 C 117.124 286.167, 116.231 289.735, 113.994 303.500 C 113.368 307.350, 112.165 314.081, 111.320 318.458 C 110.475 322.835, 109.212 332.489, 108.514 339.912 C 106.522 361.095, 108.701 365.143, 122.467 365.838 C 126.519 366.043, 131.352 365.709, 133.208 365.097 C 138.134 363.471, 144.650 356.534, 153.429 343.573 C 159.257 334.968, 161.935 331.870, 164.238 331.067 C 167.534 329.918, 216.617 329.532, 219.485 330.633 C 220.391 330.980, 224.335 336.043, 228.248 341.883 C 241.401 361.510, 249.241 367.154, 261.154 365.574 C 272.060 364.127, 274.994 360.837, 275.014 350.027 C 275.029 341.763, 270.075 306.848, 268.756 305.920 C 268.303 305.601, 268.211 304.613, 268.553 303.723 C 268.894 302.834, 268.459 299.651, 267.586 296.650 C 266.714 293.648, 266 290.279, 266 289.163 C 266 288.048, 265.145 286.863, 264.100 286.532 C 262.539 286.036, 262.291 285.247, 262.713 282.104 C 263.817 273.870, 255.646 263.753, 244.984 260.152 C 235.511 256.953, 233.152 257.351, 218.082 264.697" stroke="none" fill="#fffcfc" fill-rule="evenodd"/><path d="" stroke="none" fill="#fcfcfc" fill-rule="evenodd"/></svg>